<?xml version="1.0" encoding="UTF-8"?>
<svg xmlns="http://www.w3.org/2000/svg" xmlns:xlink="http://www.w3.org/1999/xlink" width="96px" height="96px" viewBox="0 0 96 96" version="1.1">
<g id="surface1">
<path style=" stroke:none;fill-rule:nonzero;fill:rgb(0%,0%,0%);fill-opacity:1;" d="M 19.199219 10.800781 C 17.226562 10.800781 15.601562 12.425781 15.601562 14.398438 L 15.601562 81.601562 C 15.601562 83.574219 17.226562 85.199219 19.199219 85.199219 L 76.800781 85.199219 C 78.773438 85.199219 80.398438 83.574219 80.398438 81.601562 L 80.398438 14.398438 C 80.398438 12.425781 78.773438 10.800781 76.800781 10.800781 Z M 19.199219 13.199219 L 24 13.199219 L 24 82.800781 L 19.199219 82.800781 C 18.519531 82.800781 18 82.28125 18 81.601562 L 18 14.398438 C 18 13.71875 18.519531 13.199219 19.199219 13.199219 Z M 26.398438 13.199219 L 76.800781 13.199219 C 77.480469 13.199219 78 13.71875 78 14.398438 L 78 81.601562 C 78 82.28125 77.480469 82.800781 76.800781 82.800781 L 26.398438 82.800781 L 26.398438 80.398438 C 27.0625 80.398438 27.601562 79.859375 27.601562 79.199219 C 27.601562 78.539062 27.0625 78 26.398438 78 L 26.398438 18 C 27.0625 18 27.601562 17.460938 27.601562 16.800781 C 27.601562 16.140625 27.0625 15.601562 26.398438 15.601562 Z M 31.199219 15.601562 C 30.539062 15.601562 30 16.140625 30 16.800781 C 30 17.460938 30.539062 18 31.199219 18 C 31.859375 18 32.398438 17.460938 32.398438 16.800781 C 32.398438 16.140625 31.859375 15.601562 31.199219 15.601562 Z M 36 15.601562 C 35.339844 15.601562 34.800781 16.140625 34.800781 16.800781 C 34.800781 17.460938 35.339844 18 36 18 C 36.660156 18 37.199219 17.460938 37.199219 16.800781 C 37.199219 16.140625 36.660156 15.601562 36 15.601562 Z M 40.800781 15.601562 C 40.140625 15.601562 39.601562 16.140625 39.601562 16.800781 C 39.601562 17.460938 40.140625 18 40.800781 18 C 41.460938 18 42 17.460938 42 16.800781 C 42 16.140625 41.460938 15.601562 40.800781 15.601562 Z M 45.601562 15.601562 C 44.9375 15.601562 44.398438 16.140625 44.398438 16.800781 C 44.398438 17.460938 44.9375 18 45.601562 18 C 46.261719 18 46.800781 17.460938 46.800781 16.800781 C 46.800781 16.140625 46.261719 15.601562 45.601562 15.601562 Z M 50.398438 15.601562 C 49.738281 15.601562 49.199219 16.140625 49.199219 16.800781 C 49.199219 17.460938 49.738281 18 50.398438 18 C 51.0625 18 51.601562 17.460938 51.601562 16.800781 C 51.601562 16.140625 51.0625 15.601562 50.398438 15.601562 Z M 55.199219 15.601562 C 54.539062 15.601562 54 16.140625 54 16.800781 C 54 17.460938 54.539062 18 55.199219 18 C 55.859375 18 56.398438 17.460938 56.398438 16.800781 C 56.398438 16.140625 55.859375 15.601562 55.199219 15.601562 Z M 60 15.601562 C 59.339844 15.601562 58.800781 16.140625 58.800781 16.800781 C 58.800781 17.460938 59.339844 18 60 18 C 60.660156 18 61.199219 17.460938 61.199219 16.800781 C 61.199219 16.140625 60.660156 15.601562 60 15.601562 Z M 64.800781 15.601562 C 64.140625 15.601562 63.601562 16.140625 63.601562 16.800781 C 63.601562 17.460938 64.140625 18 64.800781 18 C 65.460938 18 66 17.460938 66 16.800781 C 66 16.140625 65.460938 15.601562 64.800781 15.601562 Z M 69.601562 15.601562 C 68.9375 15.601562 68.398438 16.140625 68.398438 16.800781 C 68.398438 17.460938 68.9375 18 69.601562 18 C 70.261719 18 70.800781 17.460938 70.800781 16.800781 C 70.800781 16.140625 70.261719 15.601562 69.601562 15.601562 Z M 74.398438 15.601562 C 73.738281 15.601562 73.199219 16.140625 73.199219 16.800781 C 73.199219 17.460938 73.738281 18 74.398438 18 C 75.0625 18 75.601562 17.460938 75.601562 16.800781 C 75.601562 16.140625 75.0625 15.601562 74.398438 15.601562 Z M 74.398438 20.398438 C 73.738281 20.398438 73.199219 20.9375 73.199219 21.601562 C 73.199219 22.261719 73.738281 22.800781 74.398438 22.800781 C 75.0625 22.800781 75.601562 22.261719 75.601562 21.601562 C 75.601562 20.9375 75.0625 20.398438 74.398438 20.398438 Z M 74.398438 25.199219 C 73.738281 25.199219 73.199219 25.738281 73.199219 26.398438 C 73.199219 27.0625 73.738281 27.601562 74.398438 27.601562 C 75.0625 27.601562 75.601562 27.0625 75.601562 26.398438 C 75.601562 25.738281 75.0625 25.199219 74.398438 25.199219 Z M 74.398438 30 C 73.738281 30 73.199219 30.539062 73.199219 31.199219 C 73.199219 31.859375 73.738281 32.398438 74.398438 32.398438 C 75.0625 32.398438 75.601562 31.859375 75.601562 31.199219 C 75.601562 30.539062 75.0625 30 74.398438 30 Z M 49.199219 33.601562 C 44.574219 33.601562 40.800781 37.375 40.800781 42 C 40.800781 44.886719 42.277344 47.445312 44.507812 48.957031 C 40.21875 50.789062 37.199219 55.050781 37.199219 60 L 39.601562 60 C 39.601562 54.683594 43.882812 50.398438 49.199219 50.398438 C 54.515625 50.398438 58.800781 54.683594 58.800781 60 L 61.199219 60 C 61.199219 55.050781 58.179688 50.789062 53.890625 48.957031 C 56.125 47.445312 57.601562 44.886719 57.601562 42 C 57.601562 37.375 53.828125 33.601562 49.199219 33.601562 Z M 74.398438 34.800781 C 73.738281 34.800781 73.199219 35.339844 73.199219 36 C 73.199219 36.660156 73.738281 37.199219 74.398438 37.199219 C 75.0625 37.199219 75.601562 36.660156 75.601562 36 C 75.601562 35.339844 75.0625 34.800781 74.398438 34.800781 Z M 49.199219 36 C 52.527344 36 55.199219 38.671875 55.199219 42 C 55.199219 45.328125 52.527344 48 49.199219 48 C 45.871094 48 43.199219 45.328125 43.199219 42 C 43.199219 38.671875 45.871094 36 49.199219 36 Z M 74.398438 39.601562 C 73.738281 39.601562 73.199219 40.140625 73.199219 40.800781 C 73.199219 41.460938 73.738281 42 74.398438 42 C 75.0625 42 75.601562 41.460938 75.601562 40.800781 C 75.601562 40.140625 75.0625 39.601562 74.398438 39.601562 Z M 74.398438 44.398438 C 73.738281 44.398438 73.199219 44.9375 73.199219 45.601562 C 73.199219 46.261719 73.738281 46.800781 74.398438 46.800781 C 75.0625 46.800781 75.601562 46.261719 75.601562 45.601562 C 75.601562 44.9375 75.0625 44.398438 74.398438 44.398438 Z M 74.398438 49.199219 C 73.738281 49.199219 73.199219 49.738281 73.199219 50.398438 C 73.199219 51.0625 73.738281 51.601562 74.398438 51.601562 C 75.0625 51.601562 75.601562 51.0625 75.601562 50.398438 C 75.601562 49.738281 75.0625 49.199219 74.398438 49.199219 Z M 74.398438 54 C 73.738281 54 73.199219 54.539062 73.199219 55.199219 C 73.199219 55.859375 73.738281 56.398438 74.398438 56.398438 C 75.0625 56.398438 75.601562 55.859375 75.601562 55.199219 C 75.601562 54.539062 75.0625 54 74.398438 54 Z M 74.398438 58.800781 C 73.738281 58.800781 73.199219 59.339844 73.199219 60 C 73.199219 60.660156 73.738281 61.199219 74.398438 61.199219 C 75.0625 61.199219 75.601562 60.660156 75.601562 60 C 75.601562 59.339844 75.0625 58.800781 74.398438 58.800781 Z M 74.398438 63.601562 C 73.738281 63.601562 73.199219 64.140625 73.199219 64.800781 C 73.199219 65.460938 73.738281 66 74.398438 66 C 75.0625 66 75.601562 65.460938 75.601562 64.800781 C 75.601562 64.140625 75.0625 63.601562 74.398438 63.601562 Z M 74.398438 68.398438 C 73.738281 68.398438 73.199219 68.9375 73.199219 69.601562 C 73.199219 70.261719 73.738281 70.800781 74.398438 70.800781 C 75.0625 70.800781 75.601562 70.261719 75.601562 69.601562 C 75.601562 68.9375 75.0625 68.398438 74.398438 68.398438 Z M 74.398438 73.199219 C 73.738281 73.199219 73.199219 73.738281 73.199219 74.398438 C 73.199219 75.0625 73.738281 75.601562 74.398438 75.601562 C 75.0625 75.601562 75.601562 75.0625 75.601562 74.398438 C 75.601562 73.738281 75.0625 73.199219 74.398438 73.199219 Z M 31.199219 78 C 30.539062 78 30 78.539062 30 79.199219 C 30 79.859375 30.539062 80.398438 31.199219 80.398438 C 31.859375 80.398438 32.398438 79.859375 32.398438 79.199219 C 32.398438 78.539062 31.859375 78 31.199219 78 Z M 36 78 C 35.339844 78 34.800781 78.539062 34.800781 79.199219 C 34.800781 79.859375 35.339844 80.398438 36 80.398438 C 36.660156 80.398438 37.199219 79.859375 37.199219 79.199219 C 37.199219 78.539062 36.660156 78 36 78 Z M 40.800781 78 C 40.140625 78 39.601562 78.539062 39.601562 79.199219 C 39.601562 79.859375 40.140625 80.398438 40.800781 80.398438 C 41.460938 80.398438 42 79.859375 42 79.199219 C 42 78.539062 41.460938 78 40.800781 78 Z M 45.601562 78 C 44.9375 78 44.398438 78.539062 44.398438 79.199219 C 44.398438 79.859375 44.9375 80.398438 45.601562 80.398438 C 46.261719 80.398438 46.800781 79.859375 46.800781 79.199219 C 46.800781 78.539062 46.261719 78 45.601562 78 Z M 50.398438 78 C 49.738281 78 49.199219 78.539062 49.199219 79.199219 C 49.199219 79.859375 49.738281 80.398438 50.398438 80.398438 C 51.0625 80.398438 51.601562 79.859375 51.601562 79.199219 C 51.601562 78.539062 51.0625 78 50.398438 78 Z M 55.199219 78 C 54.539062 78 54 78.539062 54 79.199219 C 54 79.859375 54.539062 80.398438 55.199219 80.398438 C 55.859375 80.398438 56.398438 79.859375 56.398438 79.199219 C 56.398438 78.539062 55.859375 78 55.199219 78 Z M 60 78 C 59.339844 78 58.800781 78.539062 58.800781 79.199219 C 58.800781 79.859375 59.339844 80.398438 60 80.398438 C 60.660156 80.398438 61.199219 79.859375 61.199219 79.199219 C 61.199219 78.539062 60.660156 78 60 78 Z M 64.800781 78 C 64.140625 78 63.601562 78.539062 63.601562 79.199219 C 63.601562 79.859375 64.140625 80.398438 64.800781 80.398438 C 65.460938 80.398438 66 79.859375 66 79.199219 C 66 78.539062 65.460938 78 64.800781 78 Z M 69.601562 78 C 68.9375 78 68.398438 78.539062 68.398438 79.199219 C 68.398438 79.859375 68.9375 80.398438 69.601562 80.398438 C 70.261719 80.398438 70.800781 79.859375 70.800781 79.199219 C 70.800781 78.539062 70.261719 78 69.601562 78 Z M 74.398438 78 C 73.738281 78 73.199219 78.539062 73.199219 79.199219 C 73.199219 79.859375 73.738281 80.398438 74.398438 80.398438 C 75.0625 80.398438 75.601562 79.859375 75.601562 79.199219 C 75.601562 78.539062 75.0625 78 74.398438 78 Z M 74.398438 78 "/>
</g>
</svg>
